<svg width="14" height="14" viewBox="0 0 14 14" fill="none" xmlns="http://www.w3.org/2000/svg">
<path fill-rule="evenodd" clip-rule="evenodd" d="M7.75 1.34289C7.75 0.928673 7.41421 0.592887 7 0.592887C6.58579 0.592887 6.25 0.928673 6.25 1.34289L6.25 6.24974L1.34315 6.24974C0.928933 6.24974 0.593146 6.58553 0.593146 6.99974C0.593146 7.41395 0.928932 7.74974 1.34315 7.74974L6.25 7.74974V12.6566C6.25 13.0708 6.58579 13.4066 7 13.4066C7.41421 13.4066 7.75 13.0708 7.75 12.6566V7.74974L12.6569 7.74974C13.0711 7.74974 13.4069 7.41395 13.4069 6.99974C13.4069 6.58553 13.0711 6.24974 12.6569 6.24974L7.75 6.24974L7.75 1.34289Z" fill="#10A8C9"/>
</svg>
